# xmcd CD database file
#
# Track frame offsets:
#	150
#	31760
#	70035
#	100113
#	136046
#	166630
#	189770
#	209579
#	242496
#	268332
#
# Disc length: 4064 seconds
#
# Revision: 1
# Processed by: cddbd v1.5.2PL0 Copyright (c) Steve Scherf et al.
# Submitted via: CDex 1.70beta2
#
DISCID=7a0fde0a
DTITLE=Miki Hayama Trio - Wide Angle
DYEAR=2009
DGENRE=Jazz
TTITLE0=What's Next?
TTITLE1=Flying Horses
TTITLE2=Another Angel
TTITLE3=Horizon
TTITLE4=Who Cares?
TTITLE5=Sound Of Migration
TTITLE6=Freight Trane
TTITLE7=Dismissed
TTITLE8=Up and Down
TTITLE9=A Time For Peace
EXTD=YEAR: 2009
EXTT0=
EXTT1=
EXTT2=
EXTT3=
EXTT4=
EXTT5=
EXTT6=
EXTT7=
EXTT8=
EXTT9=
PLAYORDER=
